<svg width="30" height="30" viewBox="0 0 30 30" fill="none" xmlns="http://www.w3.org/2000/svg">
<path fill-rule="evenodd" clip-rule="evenodd" d="M0 -2.15106e-06H29.9994V29.9994H0V-2.15106e-06Z" fill="white"/>
<path fill-rule="evenodd" clip-rule="evenodd" d="M20.8283 23.7133L21.2781 23.7016L21.722 23.6693L22.157 23.6135L22.589 23.537L23.0094 23.4401L23.4238 23.3224L23.8294 23.1843L24.2263 23.0286L24.6143 22.8521L24.9905 22.6611L25.355 22.4495L25.7106 22.2232L26.0516 21.9792L26.3807 21.7205L26.6982 21.4472L27.0011 21.1562L27.292 20.8534L27.5653 20.5359L27.8239 20.2068L28.068 19.8658L28.2943 19.5101L28.5059 19.1457L28.697 18.7694L28.8734 18.3814L29.0292 17.9846L29.1672 17.579L29.2849 17.1646L29.3818 16.7442L29.4582 16.3121L29.5141 15.8771L29.5465 15.4332L29.5582 14.9836L29.5465 14.5368L29.5141 14.0959L29.4582 13.6609L29.3818 13.2346L29.2849 12.8143L29.1672 12.4028L29.0292 11.9972L28.8734 11.6033L28.697 11.2182L28.5059 10.8421L28.2943 10.4805L28.068 10.1249L27.8239 9.78392L27.5653 9.45756L27.292 9.14022L27.0011 8.83736L26.6982 8.54944L26.3807 8.27599L26.0516 8.01732L25.7106 7.77345L25.355 7.547L24.9905 7.33829L24.6143 7.14733L24.2263 6.971L23.8294 6.81521L23.4238 6.677L23.0094 6.5595L22.589 6.46254L22.157 6.38597L21.722 6.3301L21.2781 6.29788L20.8283 6.28605L20.3815 6.29788L19.9378 6.3301L19.5026 6.38597L19.0736 6.46254L18.6534 6.5595L18.2389 6.677L17.8361 6.81521L17.4393 6.971L17.0542 7.14733L16.681 7.33829L16.3165 7.547L15.9638 7.77345L15.6228 8.01732L15.2936 8.27599L14.9791 8.54944L14.6763 8.83736L14.3883 9.14022L14.1149 9.45756L13.8563 9.78392L13.6152 10.1249L13.3889 10.4805L13.1803 10.8421L12.9863 11.2182L12.8128 11.6033L12.657 11.9972L12.5218 12.4028L12.4042 12.8143L12.3073 13.2346L12.2308 13.6609L12.175 14.0959L12.1427 14.5368L12.1309 14.9836L12.1427 15.4332L12.175 15.8771L12.2308 16.3121L12.3073 16.7442L12.4042 17.1646L12.5218 17.579L12.657 17.9846L12.8128 18.3814L12.9863 18.7694L13.1803 19.1457L13.3889 19.5101L13.6152 19.8658L13.8563 20.2068L14.1149 20.5359L14.3883 20.8534L14.6763 21.1562L14.9791 21.4472L15.2936 21.7205L15.6228 21.9792L15.9638 22.2232L16.3165 22.4495L16.681 22.6611L17.0542 22.8521L17.4393 23.0286L17.8361 23.1843L18.2389 23.3224L18.6534 23.4401L19.0736 23.537L19.5026 23.6135L19.9378 23.6693L20.3815 23.7016L20.8283 23.7133" fill="#F9AB1E"/>
<path fill-rule="evenodd" clip-rule="evenodd" d="M9.17092 23.7133L9.61776 23.7016L10.0616 23.6693L10.4966 23.6135L10.9258 23.537L11.3461 23.4401L11.7605 23.3224L12.1632 23.1843L12.56 23.0286L12.9451 22.8521L13.3184 22.6611L13.6828 22.4495L14.0356 22.2232L14.3765 21.9792L14.7057 21.7205L15.0203 21.4472L15.323 21.1562L15.611 20.8534L15.8845 20.5359L16.1431 20.2068L16.3841 19.8658L16.6103 19.5101L16.8191 19.1457L17.0131 18.7694L17.1865 18.3814L17.3423 17.9846L17.4775 17.579L17.595 17.1646L17.692 16.7442L17.7684 16.3121L17.8243 15.8771L17.8567 15.4332L17.8685 14.9836L17.8567 14.5368L17.8243 14.0959L17.7684 13.6609L17.692 13.2346L17.595 12.8143L17.4775 12.4028L17.3423 11.9972L17.1865 11.6033L17.0131 11.2182L16.8191 10.8421L16.6103 10.4805L16.3841 10.1249L16.1431 9.78392L15.8845 9.45756L15.611 9.14022L15.323 8.83736L15.0203 8.54944L14.7057 8.27599L14.3765 8.01732L14.0356 7.77345L13.6828 7.547L13.3184 7.33829L12.9451 7.14733L12.56 6.971L12.1632 6.81521L11.7605 6.677L11.3461 6.5595L10.9258 6.46254L10.4966 6.38597L10.0616 6.3301L9.61776 6.29788L9.17092 6.28605L8.72128 6.29788L8.27743 6.3301L7.84237 6.38597L7.41031 6.46254L6.98998 6.5595L6.57554 6.677L6.16993 6.81521L5.77306 6.971L5.38513 7.14733L5.00887 7.33829L4.6444 7.547L4.28875 7.77345L3.94775 8.01732L3.61856 8.27599L3.30108 8.54944L2.99832 8.83736L2.70737 9.14022L2.43404 9.45756L2.17535 9.78392L1.93139 10.1249L1.70505 10.4805L1.49342 10.8421L1.30235 11.2182L1.12598 11.6033L0.970225 11.9972L0.8321 12.4028L0.714464 12.8143L0.617496 13.2346L0.541077 13.6609L0.485207 14.0959L0.452865 14.5368L0.441193 14.9836L0.452865 15.4332L0.485207 15.8771L0.541077 16.3121L0.617496 16.7442L0.714464 17.1646L0.8321 17.579L0.970225 17.9846L1.12598 18.3814L1.30235 18.7694L1.49342 19.1457L1.70505 19.5101L1.93139 19.8658L2.17535 20.2068L2.43404 20.5359L2.70737 20.8534L2.99832 21.1562L3.30108 21.4472L3.61856 21.7205L3.94775 21.9792L4.28875 22.2232L4.6444 22.4495L5.00887 22.6611L5.38513 22.8521L5.77306 23.0286L6.16993 23.1843L6.57554 23.3224L6.98998 23.4401L7.41031 23.537L7.84237 23.6135L8.27743 23.6693L8.72128 23.7016L9.17092 23.7133" fill="#ED192D"/>
<path fill-rule="evenodd" clip-rule="evenodd" d="M13.9797 9.62814H18.6092V9.15486H14.3794L13.9797 9.62814" fill="#F9AB1E"/>
<path fill-rule="evenodd" clip-rule="evenodd" d="M13.286 10.6804H18.6092V10.2072H13.5653L13.286 10.6804Z" fill="#F9AB1E"/>
<path fill-rule="evenodd" clip-rule="evenodd" d="M12.7687 11.7297H18.6092V11.2564H12.9745L12.7687 11.7297Z" fill="#F9AB1E"/>
<path fill-rule="evenodd" clip-rule="evenodd" d="M12.413 12.7819H18.6092V12.3088H12.56L12.413 12.7819Z" fill="#F9AB1E"/>
<path fill-rule="evenodd" clip-rule="evenodd" d="M12.6188 17.867H18.6238V17.3938H12.4718L12.6188 17.867Z" fill="#F9AB1E"/>
<path fill-rule="evenodd" clip-rule="evenodd" d="M13.0627 18.9193H18.6238V18.4461H12.8422L13.0627 18.9193Z" fill="#F9AB1E"/>
<path fill-rule="evenodd" clip-rule="evenodd" d="M13.6858 19.9687H18.6238V19.4954H13.3889L13.6858 19.9687" fill="#F9AB1E"/>
<path fill-rule="evenodd" clip-rule="evenodd" d="M14.5441 21.0209H18.6238V20.5448H14.1296L14.5441 21.0209Z" fill="#F9AB1E"/>
<path fill-rule="evenodd" clip-rule="evenodd" d="M12.2044 13.8313H18.6091V13.3581H12.2954L12.2044 13.8313Z" fill="#F9AB1E"/>
<path fill-rule="evenodd" clip-rule="evenodd" d="M16.1078 16.8177H18.5503V16.3444H16.1959L16.1078 16.8177Z" fill="#F9AB1E"/>
<path fill-rule="evenodd" clip-rule="evenodd" d="M16.3019 15.7683H18.5503V15.2922H16.39L16.3019 15.7683Z" fill="#F9AB1E"/>
<path fill-rule="evenodd" clip-rule="evenodd" d="M12.0427 15.2922H12.6776V15.7683H12.0721L12.0427 15.2922" fill="#F9AB1E"/>
<path fill-rule="evenodd" clip-rule="evenodd" d="M10.8581 14.719L10.817 14.7161L10.7758 14.7102L10.7376 14.7043L10.6994 14.6985L10.6641 14.6926L10.626 14.6867L10.5877 14.6808L10.5466 14.675L10.5054 14.6691L10.4584 14.6661L10.4055 14.6632L10.3497 14.6602H10.2879L10.2203 14.6632L10.1439 14.6691L10.0586 14.675L9.99983 14.6838L9.94398 14.6926L9.89407 14.7102L9.84993 14.7279L9.80876 14.7484L9.77059 14.7719L9.74115 14.8014L9.71471 14.8278L9.69708 14.8601L9.68237 14.8924L9.67654 14.9277V14.963L9.68534 15.0012L9.69708 15.0394L9.72061 15.0776L9.75004 15.1158L9.80876 15.1717L9.87934 15.2158L9.96166 15.254L10.0498 15.2863L10.1439 15.3157L10.2408 15.348L10.3379 15.3833L10.4319 15.4215L10.5201 15.4715L10.6024 15.5332L10.6759 15.6067L10.7376 15.6978L10.7846 15.8095L10.8141 15.9418L10.8258 16.1005L10.8141 16.2857L10.7935 16.4238L10.7582 16.5443L10.7112 16.6561L10.6523 16.753L10.5848 16.8383L10.5083 16.9118L10.4261 16.9764L10.3349 17.0323L10.2408 17.0763L10.1439 17.1146L10.0439 17.144L9.94105 17.1675L9.8411 17.1852L9.74414 17.1939L9.64711 17.1998L9.55598 17.2027H9.42965L9.31201 17.1998H9.20921L9.11218 17.1968L9.02396 17.1939L8.94464 17.188L8.87406 17.1822L8.80651 17.1734L8.74474 17.1675L8.68893 17.1557L8.63306 17.1469L8.58308 17.1322L8.53311 17.1205L8.48606 17.1028L8.43906 17.0852L8.38908 17.0675L8.52137 16.4179L8.54783 16.4238L8.58017 16.4326L8.62126 16.4444L8.67123 16.4562L8.7242 16.4679L8.78298 16.4796L8.84766 16.4943L8.91818 16.5062L8.99162 16.5179L9.06804 16.5297L9.14744 16.5385L9.22976 16.5473L9.315 16.5502L9.40022 16.5531H9.48546L9.57069 16.5502L9.65593 16.5326L9.72354 16.5091L9.77642 16.4768L9.81759 16.4356L9.847 16.3944L9.87053 16.3474L9.88524 16.3004L9.89698 16.2563L9.90281 16.171L9.87643 16.0976L9.8264 16.0388L9.75289 15.9888L9.6648 15.9447L9.56188 15.9006L9.44722 15.8595L9.33262 15.8124L9.21505 15.7595L9.10337 15.6978L9.00045 15.6214L8.9064 15.5303L8.83289 15.4186L8.78001 15.2863L8.75355 15.1276L8.75654 14.9395L8.77118 14.8249L8.79179 14.7161L8.82116 14.6161L8.85642 14.5221L8.90347 14.434L8.95637 14.3575L9.01813 14.2841L9.09163 14.2193L9.17687 14.1635L9.27092 14.1165L9.37669 14.0724L9.49427 14.04L9.62656 14.0136L9.77059 13.993L9.92932 13.9812L10.1027 13.9783H10.2115L10.3114 13.9812L10.4025 13.9842L10.4848 13.9871L10.5583 13.993L10.626 13.999L10.6847 14.0047L10.7376 14.0106L10.7876 14.0165L10.8288 14.0253L10.8669 14.0312L10.9022 14.0371L10.9316 14.043L10.9581 14.046L10.9845 14.0519L11.0081 14.0547L10.8581 14.719" fill="white"/>
<path d="M10.8581 14.719L10.817 14.7161L10.7758 14.7102L10.7376 14.7043L10.6994 14.6985L10.6641 14.6926L10.626 14.6867L10.5877 14.6808L10.5466 14.675L10.5054 14.6691L10.4584 14.6661L10.4055 14.6632L10.3497 14.6602H10.2879L10.2203 14.6632L10.1439 14.6691L10.0586 14.675L9.99983 14.6838L9.94398 14.6926L9.89407 14.7102L9.84993 14.7279L9.80876 14.7484L9.77059 14.7719L9.74115 14.8014L9.71471 14.8278L9.69708 14.8601L9.68237 14.8924L9.67654 14.9277V14.963L9.68534 15.0012L9.69708 15.0394L9.72061 15.0776L9.75004 15.1158L9.80876 15.1717L9.87934 15.2158L9.96166 15.254L10.0498 15.2863L10.1439 15.3157L10.2408 15.348L10.3379 15.3833L10.4319 15.4215L10.5201 15.4715L10.6024 15.5332L10.6759 15.6067L10.7376 15.6978L10.7846 15.8095L10.8141 15.9418L10.8258 16.1005L10.8141 16.2857L10.7935 16.4238L10.7582 16.5443L10.7112 16.6561L10.6523 16.753L10.5848 16.8383L10.5083 16.9118L10.4261 16.9764L10.3349 17.0323L10.2408 17.0763L10.1439 17.1146L10.0439 17.144L9.94105 17.1675L9.8411 17.1852L9.74414 17.1939L9.64711 17.1998L9.55598 17.2027H9.42965L9.31201 17.1998H9.20921L9.11218 17.1968L9.02396 17.1939L8.94464 17.188L8.87406 17.1822L8.80651 17.1734L8.74474 17.1675L8.68893 17.1557L8.63306 17.1469L8.58308 17.1322L8.53311 17.1205L8.48606 17.1028L8.43906 17.0852L8.38908 17.0675L8.52137 16.4179L8.54783 16.4238L8.58017 16.4326L8.62126 16.4444L8.67123 16.4562L8.7242 16.4679L8.78298 16.4796L8.84766 16.4943L8.91818 16.5062L8.99162 16.5179L9.06804 16.5297L9.14744 16.5385L9.22976 16.5473L9.315 16.5502L9.40022 16.5531H9.48546L9.57069 16.5502L9.65593 16.5326L9.72354 16.5091L9.77642 16.4768L9.81759 16.4356L9.847 16.3944L9.87053 16.3474L9.88524 16.3004L9.89698 16.2563L9.90281 16.171L9.87643 16.0976L9.8264 16.0388L9.75289 15.9888L9.6648 15.9447L9.56188 15.9006L9.44722 15.8595L9.33262 15.8124L9.21505 15.7595L9.10337 15.6978L9.00045 15.6214L8.9064 15.5303L8.83289 15.4186L8.78001 15.2863L8.75355 15.1276L8.75654 14.9395L8.77118 14.8249L8.79179 14.7161L8.82116 14.6161L8.85642 14.5221L8.90347 14.434L8.95637 14.3575L9.01813 14.2841L9.09163 14.2193L9.17687 14.1635L9.27092 14.1165L9.37669 14.0724L9.49427 14.04L9.62656 14.0136L9.77059 13.993L9.92932 13.9812L10.1027 13.9783H10.2115L10.3114 13.9812L10.4025 13.9842L10.4848 13.9871L10.5583 13.993L10.626 13.999L10.6847 14.0047L10.7376 14.0106L10.7876 14.0165L10.8288 14.0253L10.8669 14.0312L10.9022 14.0371L10.9316 14.043L10.9581 14.046L10.9845 14.0519L11.0081 14.0547L10.8581 14.719" stroke="white" stroke-width="0.288" stroke-miterlimit="2.6131"/>
<path fill-rule="evenodd" clip-rule="evenodd" d="M11.5547 13.3288H12.3689L12.2485 14.04H12.7393L12.6335 14.7043L12.1162 14.6896L11.834 16.3298L11.831 16.3886L11.8457 16.4385L11.8752 16.4768L11.9134 16.5091L11.9662 16.5297L12.0251 16.5473L12.0897 16.559L12.1602 16.5649L12.2249 16.562L12.2837 16.5561L12.3366 16.5473L12.3837 16.5355L12.4218 16.5238L12.4483 16.515L12.466 16.5091L12.4718 16.5062L12.3689 17.0528L12.3484 17.0675L12.3278 17.0793L12.3073 17.0911L12.2866 17.1028L12.2661 17.1117L12.2426 17.1205L12.2161 17.1293L12.1897 17.1381L12.1602 17.1469L12.1309 17.1528L12.0956 17.1587L12.0604 17.1645L12.0221 17.1704L11.978 17.1763L11.931 17.1822L11.881 17.188H11.6577L11.5401 17.1792L11.4371 17.1675L11.3431 17.1498L11.2638 17.1293L11.1962 17.1028L11.1404 17.0734L11.0903 17.0382L11.0521 16.9999L11.0228 16.9588L11.0022 16.9089L10.9875 16.8589L10.9786 16.803L10.9757 16.7413V16.6766L10.9845 16.609L10.9933 16.5355L11.5547 13.3288" fill="white"/>
<path d="M11.5547 13.3288H12.3689L12.2485 14.04H12.7393L12.6335 14.7043L12.1162 14.6896L11.834 16.3298L11.831 16.3886L11.8457 16.4385L11.8752 16.4768L11.9134 16.5091L11.9662 16.5297L12.0251 16.5473L12.0897 16.559L12.1602 16.5649L12.2249 16.562L12.2837 16.5561L12.3366 16.5473L12.3837 16.5355L12.4218 16.5238L12.4483 16.515L12.466 16.5091L12.4718 16.5062L12.3689 17.0528L12.3484 17.0675L12.3278 17.0793L12.3073 17.0911L12.2866 17.1028L12.2661 17.1117L12.2426 17.1205L12.2161 17.1293L12.1897 17.1381L12.1602 17.1469L12.1309 17.1528L12.0956 17.1587L12.0604 17.1645L12.0221 17.1704L11.978 17.1763L11.931 17.1822L11.881 17.188H11.6577L11.5401 17.1792L11.4371 17.1675L11.3431 17.1498L11.2638 17.1293L11.1962 17.1028L11.1404 17.0734L11.0903 17.0382L11.0521 16.9999L11.0228 16.9588L11.0022 16.9089L10.9875 16.8589L10.9786 16.803L10.9757 16.7413V16.6766L10.9845 16.609L10.9933 16.5355L11.5547 13.3288" stroke="white" stroke-width="0.288" stroke-miterlimit="2.6131"/>
<path fill-rule="evenodd" clip-rule="evenodd" d="M13.3889 15.8124L13.3801 15.8625L13.3772 15.9154L13.383 15.9712L13.3948 16.027L13.4153 16.0829L13.4389 16.1358L13.4712 16.1917L13.5065 16.2416L13.5476 16.2916L13.5918 16.3356L13.6388 16.3798L13.6917 16.415L13.7446 16.4474L13.8034 16.4738L13.8621 16.4943L13.921 16.5062L13.9973 16.5179L14.0708 16.5267L14.1473 16.5355L14.2237 16.5414L14.3001 16.5443H14.3794L14.4559 16.5414L14.5352 16.5355L14.6146 16.5238L14.694 16.5091L14.7763 16.4914L14.8556 16.465L14.938 16.4326L15.0232 16.3974L15.1055 16.3504L15.1907 16.3004L15.0732 17.0235L15.0261 17.047L14.9791 17.0705L14.9321 17.0881L14.888 17.1057L14.8439 17.1205L14.7968 17.1351L14.7499 17.1469L14.6999 17.1557L14.6469 17.1645L14.5882 17.1704L14.5264 17.1763L14.4588 17.1822L14.3825 17.1852H14.3031L14.2119 17.188H14.1149L13.9709 17.1852L13.8239 17.1704L13.677 17.1498L13.53 17.1146L13.386 17.0705L13.2478 17.0146L13.1156 16.9412L12.9921 16.8559L12.8774 16.7559L12.7776 16.6355L12.6923 16.5003L12.6217 16.3444L12.5718 16.171L12.5394 15.9741L12.5306 15.7566L12.5454 15.5156L12.5571 15.4215L12.5747 15.3128L12.5983 15.1981L12.6306 15.0747L12.6746 14.9483L12.7275 14.8219L12.7952 14.6926L12.8774 14.5691L12.9715 14.4515L13.0861 14.3398L13.2155 14.2399L13.3625 14.1516L13.5329 14.0783L13.724 14.0253L13.9356 13.9901L14.1738 13.9783L14.2884 13.9812L14.4088 13.993L14.5294 14.0136L14.6499 14.043L14.7675 14.087L14.8821 14.14L14.9879 14.2106L15.0849 14.2928L15.173 14.3927L15.2465 14.5103L15.3054 14.6455L15.3465 14.8014L15.37 14.9777L15.3729 15.1775L15.3524 15.4009L15.3083 15.6478L15.2936 15.8271H13.1508L13.286 15.2481H14.5735L14.5793 15.1746L14.5764 15.104L14.5705 15.0394L14.5588 14.9806L14.5382 14.9248L14.5176 14.8748L14.4882 14.8307L14.4588 14.7896L14.4236 14.7543L14.3854 14.7249L14.3413 14.6985L14.2972 14.675L14.2501 14.6573L14.2031 14.6455L14.1532 14.6367L14.1003 14.6308L14.0444 14.6338L13.9915 14.6426L13.9415 14.6543L13.8915 14.672L13.8416 14.6955L13.7974 14.722L13.7534 14.7543L13.7152 14.7896L13.677 14.8307L13.6417 14.8748L13.6093 14.9218L13.5829 14.9718L13.5565 15.0247L13.5359 15.0835L13.5183 15.1423L13.5065 15.204L13.3889 15.8124" fill="white"/>
<path d="M13.3889 15.8124L13.3801 15.8625L13.3772 15.9154L13.383 15.9712L13.3948 16.027L13.4153 16.0829L13.4389 16.1358L13.4712 16.1917L13.5065 16.2416L13.5476 16.2916L13.5918 16.3356L13.6388 16.3798L13.6917 16.415L13.7446 16.4474L13.8034 16.4738L13.8621 16.4943L13.921 16.5062L13.9973 16.5179L14.0708 16.5267L14.1473 16.5355L14.2237 16.5414L14.3001 16.5443H14.3794L14.4559 16.5414L14.5352 16.5355L14.6146 16.5238L14.694 16.5091L14.7763 16.4914L14.8556 16.465L14.938 16.4326L15.0232 16.3974L15.1055 16.3504L15.1907 16.3004L15.0732 17.0235L15.0261 17.047L14.9791 17.0705L14.9321 17.0881L14.888 17.1057L14.8439 17.1205L14.7968 17.1351L14.7499 17.1469L14.6999 17.1557L14.6469 17.1645L14.5882 17.1704L14.5264 17.1763L14.4588 17.1822L14.3825 17.1852H14.3031L14.2119 17.188H14.1149L13.9709 17.1852L13.8239 17.1704L13.677 17.1498L13.53 17.1146L13.386 17.0705L13.2478 17.0146L13.1156 16.9412L12.9921 16.8559L12.8774 16.7559L12.7776 16.6355L12.6923 16.5003L12.6217 16.3444L12.5718 16.171L12.5394 15.9741L12.5306 15.7566L12.5454 15.5156L12.5571 15.4215L12.5747 15.3128L12.5983 15.1981L12.6306 15.0747L12.6746 14.9483L12.7275 14.8219L12.7952 14.6926L12.8774 14.5691L12.9715 14.4515L13.0861 14.3398L13.2155 14.2399L13.3625 14.1516L13.5329 14.0783L13.724 14.0253L13.9356 13.9901L14.1738 13.9783L14.2884 13.9812L14.4088 13.993L14.5294 14.0136L14.6499 14.043L14.7675 14.087L14.8821 14.14L14.9879 14.2106L15.0849 14.2928L15.173 14.3927L15.2465 14.5103L15.3054 14.6455L15.3465 14.8014L15.37 14.9777L15.3729 15.1775L15.3524 15.4009L15.3083 15.6478L15.2936 15.8271H13.1508L13.286 15.2481H14.5735L14.5793 15.1746L14.5764 15.104L14.5705 15.0394L14.5588 14.9806L14.5382 14.9248L14.5176 14.8748L14.4882 14.8307L14.4588 14.7896L14.4236 14.7543L14.3854 14.7249L14.3413 14.6985L14.2972 14.675L14.2501 14.6573L14.2031 14.6455L14.1532 14.6367L14.1003 14.6308L14.0444 14.6338L13.9915 14.6426L13.9415 14.6543L13.8915 14.672L13.8416 14.6955L13.7974 14.722L13.7534 14.7543L13.7152 14.7896L13.677 14.8307L13.6417 14.8748L13.6093 14.9218L13.5829 14.9718L13.5565 15.0247L13.5359 15.0835L13.5183 15.1423L13.5065 15.204L13.3889 15.8124" stroke="white" stroke-width="0.288" stroke-miterlimit="2.6131"/>
<path fill-rule="evenodd" clip-rule="evenodd" d="M20.3993 14.2164L20.361 14.1958L20.3228 14.1783L20.2816 14.1577L20.2376 14.137L20.1935 14.1194L20.1436 14.1018L20.0936 14.0841L20.0407 14.0665L19.9848 14.0519L19.9289 14.0401L19.8673 14.0282L19.8055 14.0195L19.7378 14.0136L19.6703 14.0077H19.5998H19.5263H19.4527L19.3763 14.0136L19.2969 14.0225L19.2147 14.0371L19.1324 14.0606L19.0501 14.093L18.9677 14.1342L18.8854 14.187L18.8062 14.2517L18.7296 14.3281L18.6562 14.4221L18.5857 14.5309L18.5211 14.6603L18.4593 14.8072L18.4034 14.9718L18.3564 15.1599L18.3387 15.2657L18.327 15.3686L18.3211 15.4715L18.324 15.5714L18.3329 15.6714L18.3535 15.7654L18.3799 15.8537L18.4123 15.9418L18.4563 16.0211L18.5092 16.0976L18.571 16.1652L18.6415 16.2269L18.7209 16.2798L18.8119 16.3239L18.9119 16.3621L19.0236 16.3886L19.0619 16.3974L19.1059 16.4062L19.1589 16.4121L19.2175 16.418L19.2823 16.4239H19.3498H19.4234L19.4969 16.418L19.5733 16.4091L19.6497 16.3944L19.7232 16.3739L19.7966 16.3504L19.8701 16.3181L19.9378 16.2798L19.9994 16.2328L20.0583 16.1799L19.926 16.9647L19.9084 16.9794L19.8908 16.997L19.8673 17.0176L19.8407 17.0353L19.8085 17.0588L19.7672 17.0793L19.7202 17.0999L19.6673 17.1175L19.5998 17.1381L19.5234 17.1528L19.4351 17.1646L19.3322 17.1763L19.2175 17.1822L19.0854 17.1852L18.9354 17.1822L18.7709 17.1734L18.6356 17.1587L18.5004 17.1293L18.3653 17.0852L18.23 17.0264L18.1007 16.9559L17.9771 16.8677L17.8596 16.7648L17.7508 16.6472L17.6539 16.515L17.5715 16.368L17.501 16.2034L17.4481 16.0241L17.413 15.8272L17.4011 15.6185L17.4069 15.3892L17.4393 15.1452L17.4628 15.0247L17.4894 14.9071L17.5186 14.7925L17.548 14.6838L17.5804 14.5809L17.6185 14.478L17.6568 14.381L17.6979 14.2898L17.7421 14.1988L17.7862 14.1135L17.8361 14.0312L17.889 13.9548L17.942 13.8813L18.0008 13.8108L18.0595 13.7461L18.1212 13.6844L18.1889 13.6256L18.2565 13.5697L18.327 13.5198L18.4005 13.4728L18.4798 13.4287L18.5592 13.3904L18.6415 13.3551L18.7268 13.3229L18.8179 13.2935L18.9089 13.27L19.0031 13.2493L19.103 13.2317L19.2029 13.2171L19.3087 13.2054L19.4146 13.1993L19.5263 13.1965L19.6203 13.1993L19.7115 13.2054L19.7996 13.2139L19.8878 13.2259L19.97 13.2376L20.0496 13.2552L20.1258 13.27L20.1965 13.2876L20.264 13.3051L20.3228 13.3229L20.3787 13.3405L20.4257 13.3581L20.4668 13.3728L20.5021 13.3847L20.5286 13.3964L20.5462 13.4023L20.3993 14.2164" fill="white"/>
<path d="M20.3993 14.2164L20.361 14.1958L20.3228 14.1783L20.2816 14.1577L20.2376 14.137L20.1935 14.1194L20.1436 14.1018L20.0936 14.0841L20.0407 14.0665L19.9848 14.0519L19.9289 14.0401L19.8673 14.0282L19.8055 14.0195L19.7378 14.0136L19.6703 14.0077H19.5998H19.5263H19.4527L19.3763 14.0136L19.2969 14.0225L19.2147 14.0371L19.1324 14.0606L19.0501 14.093L18.9677 14.1342L18.8854 14.187L18.8062 14.2517L18.7296 14.3281L18.6562 14.4221L18.5857 14.5309L18.5211 14.6603L18.4593 14.8072L18.4034 14.9718L18.3564 15.1599L18.3387 15.2657L18.327 15.3686L18.3211 15.4715L18.324 15.5714L18.3329 15.6714L18.3535 15.7654L18.3799 15.8537L18.4123 15.9418L18.4563 16.0211L18.5092 16.0976L18.571 16.1652L18.6415 16.2269L18.7209 16.2798L18.8119 16.3239L18.9119 16.3621L19.0236 16.3886L19.0619 16.3974L19.1059 16.4062L19.1589 16.4121L19.2175 16.418L19.2823 16.4239H19.3498H19.4234L19.4969 16.418L19.5733 16.4091L19.6497 16.3944L19.7232 16.3739L19.7966 16.3504L19.8701 16.3181L19.9378 16.2798L19.9994 16.2328L20.0583 16.1799L19.926 16.9647L19.9084 16.9794L19.8908 16.997L19.8673 17.0176L19.8407 17.0353L19.8085 17.0588L19.7672 17.0793L19.7202 17.0999L19.6673 17.1175L19.5998 17.1381L19.5234 17.1528L19.4351 17.1646L19.3322 17.1763L19.2175 17.1822L19.0854 17.1852L18.9354 17.1822L18.7709 17.1734L18.6356 17.1587L18.5004 17.1293L18.3653 17.0852L18.23 17.0264L18.1007 16.9559L17.9771 16.8677L17.8596 16.7648L17.7508 16.6472L17.6539 16.515L17.5715 16.368L17.501 16.2034L17.4481 16.0241L17.413 15.8272L17.4011 15.6185L17.4069 15.3892L17.4393 15.1452L17.4628 15.0247L17.4894 14.9071L17.5186 14.7925L17.548 14.6838L17.5804 14.5809L17.6185 14.478L17.6568 14.381L17.6979 14.2898L17.7421 14.1988L17.7862 14.1135L17.8361 14.0312L17.889 13.9548L17.942 13.8813L18.0008 13.8108L18.0595 13.7461L18.1212 13.6844L18.1889 13.6256L18.2565 13.5697L18.327 13.5198L18.4005 13.4728L18.4798 13.4287L18.5592 13.3904L18.6415 13.3551L18.7268 13.3229L18.8179 13.2935L18.9089 13.27L19.0031 13.2493L19.103 13.2317L19.2029 13.2171L19.3087 13.2054L19.4146 13.1993L19.5263 13.1965L19.6203 13.1993L19.7115 13.2054L19.7996 13.2139L19.8878 13.2259L19.97 13.2376L20.0496 13.2552L20.1258 13.27L20.1965 13.2876L20.264 13.3051L20.3228 13.3229L20.3787 13.3405L20.4257 13.3581L20.4668 13.3728L20.5021 13.3847L20.5286 13.3964L20.5462 13.4023L20.3993 14.2164" stroke="white" stroke-width="0.288" stroke-miterlimit="2.6131"/>
<path fill-rule="evenodd" clip-rule="evenodd" d="M27.6359 17.188H26.8217L26.8805 16.8617V16.8324L26.8335 16.8912L26.7835 16.9441L26.7334 16.9911L26.6807 17.0323L26.6276 17.0705L26.5748 17.1028L26.5219 17.1293L26.466 17.1557L26.4102 17.1763L26.3543 17.191L26.2984 17.2057L26.2397 17.2145L26.1809 17.2234L26.125 17.2292L26.0662 17.2322H26.0075L25.8547 17.2204L25.7135 17.188L25.5842 17.1381L25.4667 17.0705L25.3609 16.9853L25.2667 16.8853L25.1845 16.7765L25.1139 16.6531L25.0552 16.5209L25.0081 16.3827L24.9757 16.2387L24.9523 16.0887L24.9435 15.9388L24.9464 15.786L24.9611 15.6361L24.9875 15.4862L25.0316 15.3128L25.0846 15.1481L25.1463 14.9982L25.2197 14.8572L25.2961 14.7249L25.3844 14.6073L25.4754 14.5015L25.5725 14.4045L25.6754 14.3193L25.784 14.2458L25.8958 14.1811L26.0075 14.1311L26.125 14.09L26.2427 14.0636L26.3602 14.046L26.4807 14.0401L26.566 14.043L26.6483 14.0519L26.7247 14.0665L26.7952 14.0871L26.8629 14.1106L26.9216 14.137L26.9804 14.1694L27.0333 14.2018L27.0803 14.2369L27.1245 14.2752L27.1627 14.3133L27.1978 14.3516L27.2274 14.3899L27.2537 14.428L27.2774 14.4633L27.2949 14.4986L27.5007 13.3434H28.3002L27.6359 17.188Z" fill="white"/>
<path d="M27.6359 17.188H26.8217L26.8805 16.8617V16.8324L26.8335 16.8912L26.7835 16.9441L26.7334 16.9911L26.6807 17.0323L26.6276 17.0705L26.5748 17.1028L26.5219 17.1293L26.466 17.1557L26.4102 17.1763L26.3543 17.191L26.2984 17.2057L26.2397 17.2145L26.1809 17.2234L26.125 17.2292L26.0662 17.2322H26.0075L25.8547 17.2204L25.7135 17.188L25.5842 17.1381L25.4667 17.0705L25.3609 16.9853L25.2667 16.8853L25.1845 16.7765L25.1139 16.6531L25.0552 16.5209L25.0081 16.3827L24.9757 16.2387L24.9523 16.0887L24.9435 15.9388L24.9464 15.786L24.9611 15.6361L24.9875 15.4862L25.0316 15.3128L25.0846 15.1481L25.1463 14.9982L25.2197 14.8572L25.2961 14.7249L25.3844 14.6073L25.4754 14.5015L25.5725 14.4045L25.6754 14.3193L25.784 14.2458L25.8958 14.1811L26.0075 14.1311L26.125 14.09L26.2427 14.0636L26.3602 14.046L26.4807 14.0401L26.566 14.043L26.6483 14.0519L26.7247 14.0665L26.7952 14.0871L26.8629 14.1106L26.9216 14.137L26.9804 14.1694L27.0333 14.2018L27.0803 14.2369L27.1245 14.2752L27.1627 14.3133L27.1978 14.3516L27.2274 14.3899L27.2537 14.428L27.2774 14.4633L27.2949 14.4986L27.5007 13.3434H28.3002L27.6359 17.188Z" stroke="white" stroke-width="0.288" stroke-miterlimit="2.6131"/>
<path fill-rule="evenodd" clip-rule="evenodd" d="M26.3043 16.4768L26.3866 16.4708L26.4631 16.4533L26.5336 16.4326L26.6013 16.4003L26.6629 16.365L26.7217 16.3209L26.7776 16.271L26.8276 16.218L26.8716 16.1593L26.9127 16.0946L26.951 16.027L26.9834 15.9565L27.0128 15.883L27.0363 15.8066L27.0568 15.7272L27.0714 15.6479L27.0862 15.5655L27.0951 15.4803V15.4009L27.0921 15.3187L27.0833 15.2422L27.0714 15.1687L27.0509 15.0982L27.0274 15.0305L26.998 14.9718L26.9628 14.916L26.9245 14.869L26.8805 14.8278L26.8305 14.7925L26.7776 14.769L26.7217 14.7543L26.6599 14.7484L26.5806 14.7543L26.5073 14.766L26.4396 14.7896L26.3719 14.819L26.3132 14.8572L26.2544 14.9042L26.2044 14.9542L26.1544 15.01L26.1104 15.0747L26.0692 15.1423L26.031 15.2128L25.9987 15.2892L25.9692 15.3686L25.9457 15.448L25.9222 15.5332L25.9046 15.6185L25.8899 15.7478L25.8958 15.8889L25.9163 16.0329L25.9546 16.171L26.0134 16.2916L26.0899 16.3886L26.1868 16.4533L26.3043 16.4768" fill="#F9AB1E"/>
<path fill-rule="evenodd" clip-rule="evenodd" d="M8.25389 16.5355L8.1363 17.188H7.39558L7.41614 17.0675L7.43091 16.9588L7.44264 16.8765L7.45438 16.8324L7.41321 16.8794L7.36623 16.9264L7.31042 16.9705L7.24871 17.0117L7.17813 17.0528L7.10462 17.0881L7.02821 17.1234L6.9488 17.1528L6.86358 17.1792L6.77834 17.1998L6.69311 17.2174L6.60496 17.2292L6.51966 17.2351L6.43443 17.2381L6.35216 17.2292L6.27277 17.2174L6.16992 17.191L6.07587 17.1616L5.99354 17.1234L5.92005 17.0793L5.85536 17.0323L5.79657 16.9794L5.74958 16.9235L5.70841 16.8647L5.67316 16.803L5.64373 16.7383L5.62026 16.6737L5.60257 16.609L5.59083 16.5414L5.58202 16.4738L5.57613 16.4091V16.3444L5.58495 16.2298L5.60257 16.1211L5.632 16.0182L5.67018 15.9183L5.71724 15.8242L5.77012 15.7389L5.83189 15.6567L5.90247 15.5832L5.97592 15.5156L6.05823 15.4538L6.1434 15.398L6.23161 15.351L6.32566 15.3098L6.42276 15.2775L6.52265 15.251L6.6255 15.2334H6.63134L6.64605 15.2304L6.66672 15.2275L6.69901 15.2246L6.73426 15.2187L6.77543 15.2158L6.8195 15.2099L6.86948 15.204L6.91945 15.1981L6.96936 15.1923L7.02231 15.1893L7.06936 15.1834L7.11636 15.1805L7.16043 15.1775L7.2016 15.1746H7.23394H7.30153L7.37213 15.1775L7.43675 15.1805H7.50143L7.55433 15.1834L7.59548 15.1864L7.62485 15.1893H7.63372L7.63955 15.1687L7.65719 15.1158L7.67189 15.0541L7.67779 14.9982L7.66599 14.9336L7.63955 14.8748L7.6043 14.8219L7.5573 14.7778L7.50143 14.7396L7.43966 14.7131L7.36914 14.6955L7.29272 14.6896L7.21041 14.6867L7.12226 14.6838H7.03112L6.93702 14.6867L6.84005 14.6926L6.746 14.7013L6.65195 14.7102L6.56082 14.722L6.47261 14.7337L6.38737 14.7484L6.31095 14.7631L6.2405 14.7778L6.17575 14.7955L6.12285 14.8131L6.0817 14.8337L6.04935 14.8513L6.25807 14.1429L6.32275 14.1165L6.38737 14.093L6.45795 14.0724L6.52848 14.0576L6.599 14.043L6.67548 14.0312L6.75189 14.0195L6.83124 14.0136L6.91355 14.0077L6.99878 14.0047L7.08693 14.0019H7.17813H7.27218H7.36914L7.47201 14.0047L7.57487 14.0077L7.65719 14.0136L7.7454 14.0282L7.83648 14.0488L7.93057 14.0752L8.02165 14.1105L8.10986 14.1516L8.19801 14.2017L8.28033 14.2576L8.35384 14.3222L8.41845 14.3927L8.4773 14.4721L8.52137 14.5603L8.55074 14.6543L8.56838 14.7543V14.866L8.55074 14.9836L8.25389 16.5355" fill="white"/>
<path d="M8.25389 16.5355L8.1363 17.188H7.39558L7.41614 17.0675L7.43091 16.9588L7.44264 16.8765L7.45438 16.8324L7.41321 16.8794L7.36623 16.9264L7.31042 16.9705L7.24871 17.0117L7.17813 17.0528L7.10462 17.0881L7.02821 17.1234L6.9488 17.1528L6.86358 17.1792L6.77834 17.1998L6.69311 17.2174L6.60496 17.2292L6.51966 17.2351L6.43443 17.2381L6.35216 17.2292L6.27277 17.2174L6.16992 17.191L6.07587 17.1616L5.99354 17.1234L5.92005 17.0793L5.85536 17.0323L5.79657 16.9794L5.74958 16.9235L5.70841 16.8647L5.67316 16.803L5.64373 16.7383L5.62026 16.6737L5.60257 16.609L5.59083 16.5414L5.58202 16.4738L5.57613 16.4091V16.3444L5.58495 16.2298L5.60257 16.1211L5.632 16.0182L5.67018 15.9183L5.71724 15.8242L5.77012 15.7389L5.83189 15.6567L5.90247 15.5832L5.97592 15.5156L6.05823 15.4538L6.1434 15.398L6.23161 15.351L6.32566 15.3098L6.42276 15.2775L6.52265 15.251L6.6255 15.2334H6.63134L6.64605 15.2304L6.66672 15.2275L6.69901 15.2246L6.73426 15.2187L6.77543 15.2158L6.8195 15.2099L6.86948 15.204L6.91945 15.1981L6.96936 15.1923L7.02231 15.1893L7.06936 15.1834L7.11636 15.1805L7.16043 15.1775L7.2016 15.1746H7.23394H7.30153L7.37213 15.1775L7.43675 15.1805H7.50143L7.55433 15.1834L7.59548 15.1864L7.62485 15.1893H7.63372L7.63955 15.1687L7.65719 15.1158L7.67189 15.0541L7.67779 14.9982L7.66599 14.9336L7.63955 14.8748L7.6043 14.8219L7.5573 14.7778L7.50143 14.7396L7.43966 14.7131L7.36914 14.6955L7.29272 14.6896L7.21041 14.6867L7.12226 14.6838H7.03112L6.93702 14.6867L6.84005 14.6926L6.746 14.7013L6.65195 14.7102L6.56082 14.722L6.47261 14.7337L6.38737 14.7484L6.31095 14.7631L6.2405 14.7778L6.17575 14.7955L6.12285 14.8131L6.0817 14.8337L6.04935 14.8513L6.25807 14.1429L6.32275 14.1165L6.38737 14.093L6.45795 14.0724L6.52848 14.0576L6.599 14.043L6.67548 14.0312L6.75189 14.0195L6.83124 14.0136L6.91355 14.0077L6.99878 14.0047L7.08693 14.0019H7.17813H7.27218H7.36914L7.47201 14.0047L7.57487 14.0077L7.65719 14.0136L7.7454 14.0282L7.83648 14.0488L7.93057 14.0752L8.02165 14.1105L8.10986 14.1516L8.19801 14.2017L8.28033 14.2576L8.35384 14.3222L8.41845 14.3927L8.4773 14.4721L8.52137 14.5603L8.55074 14.6543L8.56838 14.7543V14.866L8.55074 14.9836L8.25389 16.5355" stroke="white" stroke-width="0.288" stroke-miterlimit="2.6131"/>
<path fill-rule="evenodd" clip-rule="evenodd" d="M7.54551 15.7683L7.54254 15.7536L7.5308 15.7389L7.51317 15.7301L7.4838 15.7243L7.45146 15.7184L7.41322 15.7155H7.36915H7.32507L7.27802 15.7184L7.22805 15.7243L7.18098 15.7301L7.134 15.7361L7.08992 15.7419L7.04876 15.7507L7.01351 15.7595L6.98117 15.7683L6.96054 15.7742L6.93703 15.7831L6.90473 15.7948L6.87239 15.8095L6.83415 15.8271L6.79598 15.8477L6.75483 15.8683L6.71659 15.8918L6.67548 15.9212L6.63731 15.9506L6.60198 15.9859L6.56964 16.0211L6.54027 16.0594L6.51966 16.1005L6.50203 16.1475L6.49322 16.1945L6.4903 16.2945L6.50496 16.3739L6.53437 16.4326L6.57263 16.4768L6.6167 16.5062L6.66672 16.5238L6.71366 16.5326L6.76077 16.5355L6.84892 16.5326L6.9282 16.5238L7.00474 16.512L7.07229 16.4943L7.13107 16.4738L7.18695 16.4474L7.23686 16.4209L7.281 16.3886L7.31917 16.3592L7.35444 16.3239L7.38387 16.2916L7.40739 16.2563L7.42794 16.221L7.44556 16.1858L7.46029 16.1534L7.46909 16.1211L7.49263 16.0358L7.51317 15.9388L7.5308 15.8448L7.54551 15.7683" fill="#ED192D"/>
<path fill-rule="evenodd" clip-rule="evenodd" d="M2.06952 17.188H1.27007L1.93729 13.3288H3.32754L3.45983 15.6185L4.42099 13.3288H5.87312L5.19107 17.188H4.39162L4.89718 14.3046H4.86484L3.66853 17.188H2.76609L2.76025 17.0675L2.73971 16.7471L2.7132 16.2916L2.68384 15.7683L2.65448 15.2422L2.62796 14.7807L2.60742 14.4456L2.60152 14.3046H2.59271H2.57508H2.55745L2.06952 17.188Z" fill="white"/>
<path d="M2.06952 17.188H1.27007L1.93729 13.3288H3.32754L3.45983 15.6185L4.42099 13.3288H5.87312L5.19107 17.188H4.39162L4.89718 14.3046H4.86484L3.66853 17.188H2.76609L2.76025 17.0675L2.73971 16.7471L2.7132 16.2916L2.68384 15.7683L2.65448 15.2422L2.62796 14.7807L2.60742 14.4456L2.60152 14.3046H2.59271H2.57508H2.55745L2.06952 17.188Z" stroke="white" stroke-width="0.288" stroke-miterlimit="2.6131"/>
<path fill-rule="evenodd" clip-rule="evenodd" d="M22.8419 16.5355L22.7213 17.188H21.9836L21.9894 17.0675L21.9925 16.9617V16.8823L21.9982 16.8471L21.9599 16.8912L21.9159 16.9352L21.863 16.9764L21.8043 17.0175L21.7425 17.0558L21.672 17.0911L21.5984 17.1263L21.5249 17.1557L21.4456 17.1792L21.3634 17.2027L21.2811 17.2174L21.1987 17.2292L21.1134 17.2351L21.0311 17.2381L20.9517 17.2292L20.8725 17.2174L20.7665 17.191L20.6725 17.1616L20.5904 17.1234L20.5139 17.0793L20.4492 17.0323L20.3933 16.9794L20.3463 16.9235L20.3052 16.8647L20.2699 16.803L20.2435 16.7383L20.22 16.6737L20.2052 16.609L20.1935 16.5414L20.1846 16.4738L20.1787 16.4091V16.3444L20.1846 16.2298L20.2022 16.1211L20.2288 16.0182L20.267 15.9183L20.311 15.8242L20.3669 15.7389L20.4287 15.6567L20.4962 15.5832L20.5726 15.5156L20.652 15.4538L20.7373 15.398L20.8283 15.351L20.9195 15.3098L21.0165 15.2775L21.1134 15.251L21.2135 15.2334H21.2193L21.2341 15.2304L21.2546 15.2275L21.284 15.2246L21.3222 15.2187L21.3634 15.2158L21.4074 15.2099L21.4544 15.204L21.5044 15.1981L21.5573 15.1923L21.6073 15.1893L21.6572 15.1834L21.7042 15.1805L21.7455 15.1775L21.7866 15.1746H21.8189H21.8894L21.9599 15.1775L22.0276 15.1805H22.0922L22.1481 15.1834L22.1951 15.1864L22.2217 15.1893H22.2334L22.2393 15.1687L22.248 15.1158L22.2569 15.0541L22.2628 14.9982L22.251 14.9336L22.2276 14.8748L22.1892 14.8219L22.1451 14.7778L22.0922 14.7396L22.0306 14.7131L21.9659 14.6955L21.8953 14.6896L21.813 14.6867L21.7248 14.6838H21.6337L21.5397 14.6867L21.4426 14.6926L21.3486 14.7013L21.2546 14.7102L21.1634 14.722L21.0753 14.7337L20.99 14.7484L20.9136 14.7631L20.8431 14.7778L20.7784 14.7955L20.7255 14.8131L20.6844 14.8337L20.652 14.8513L20.8577 14.1429L20.9225 14.1165L20.99 14.093L21.0576 14.0724L21.1281 14.0576L21.2017 14.043L21.2751 14.0312L21.3516 14.0195L21.4309 14.0136L21.5133 14.0077L21.5984 14.0047L21.6837 14.0019H21.7749H21.8659H21.9599L22.06 14.0047L22.1598 14.0077L22.2423 14.0136L22.3303 14.0282L22.4215 14.0488L22.5155 14.0752L22.6066 14.1105L22.6978 14.1516L22.7859 14.2017L22.8682 14.2576L22.9417 14.3222L23.0094 14.3927L23.0682 14.4721L23.1122 14.5603L23.1445 14.6543L23.1652 14.7543V14.866L23.1504 14.9836L22.8419 16.5355" fill="white"/>
<path fill-rule="evenodd" clip-rule="evenodd" d="M22.7213 17.2086L22.7389 17.191L22.8594 16.5385L22.8242 16.5326L22.7037 17.1852L22.7213 17.1675V17.2086L22.7359 17.2057L22.7389 17.191L22.7213 17.2086" fill="white"/>
<path fill-rule="evenodd" clip-rule="evenodd" d="M21.9659 17.188L21.9836 17.2086H22.7213V17.1675H21.9836L22.0012 17.188H21.9659L21.9629 17.2086H21.9836L21.9659 17.188Z" fill="white"/>
<path fill-rule="evenodd" clip-rule="evenodd" d="M22.0129 16.8589L21.9866 16.8354L21.9747 16.8823L21.9718 16.9617V17.0675L21.9659 17.188H22.0012L22.0071 17.0675L22.0129 16.9617L22.0099 16.8823V16.8589L21.9836 16.8354L22.0129 16.8589" fill="white"/>
<path fill-rule="evenodd" clip-rule="evenodd" d="M20.8694 17.2351L20.9517 17.2469L21.0311 17.2557L21.1134 17.2527L21.1987 17.2469L21.284 17.2351L21.3664 17.2204L21.4485 17.1968L21.5309 17.1734L21.6043 17.144L21.6807 17.1087L21.7512 17.0734L21.813 17.0323L21.8748 16.9911L21.9277 16.9499L21.9747 16.9029L22.0129 16.8589L21.9836 16.8354L21.9453 16.8794L21.9042 16.9206L21.8513 16.9617L21.7954 17.0029L21.7337 17.0382L21.6632 17.0734L21.5925 17.1087L21.5192 17.1381L21.4426 17.1616L21.3604 17.1852L21.2781 17.1998L21.1987 17.2116L21.1134 17.2175L21.0311 17.2204L20.9517 17.2116L20.8755 17.1998L20.8694 17.2351" fill="white"/>
<path fill-rule="evenodd" clip-rule="evenodd" d="M20.1582 16.3444L20.1611 16.4091L20.167 16.4738L20.1758 16.5443L20.1876 16.6119L20.2022 16.6766L20.2257 16.7442L20.2522 16.8118L20.2905 16.8735L20.3317 16.9352L20.3787 16.9911L20.4374 17.047L20.5051 17.094L20.5815 17.141L20.6666 17.1792L20.7637 17.2086L20.8694 17.2351L20.8755 17.1998L20.7697 17.1734L20.6785 17.144L20.5991 17.1057L20.5227 17.0646L20.4609 17.0176L20.4081 16.9676L20.361 16.9118L20.3199 16.8559L20.2875 16.7942L20.261 16.7325L20.2375 16.6707L20.2229 16.6061L20.2111 16.5385L20.2022 16.4738L20.1965 16.4091L20.1994 16.3444H20.1582" fill="white"/>
<path fill-rule="evenodd" clip-rule="evenodd" d="M21.2135 15.2158L21.1105 15.2334L21.0106 15.2599L20.9136 15.2922L20.8196 15.3334L20.7284 15.3804L20.6402 15.4391L20.5609 15.5009L20.4845 15.5714L20.4139 15.6449L20.3522 15.7272L20.2934 15.8154L20.2494 15.9124L20.2111 16.0123L20.1846 16.1182L20.167 16.2298L20.1582 16.3444H20.1994L20.2022 16.2298L20.22 16.124L20.2464 16.024L20.2845 15.9242L20.3286 15.833L20.3815 15.7507L20.4433 15.6684L20.5079 15.595L20.5844 15.5303L20.6637 15.4686L20.746 15.4156L20.8372 15.3686L20.9253 15.3275L21.0224 15.2951L21.1164 15.2687L21.2135 15.251V15.2158" fill="white"/>
<path fill-rule="evenodd" clip-rule="evenodd" d="M21.8189 15.1541H21.7866L21.7455 15.1599L21.7042 15.1629L21.6572 15.1658L21.6073 15.1717L21.5573 15.1746L21.5044 15.1805L21.4545 15.1864L21.4074 15.1923L21.3634 15.1981L21.3222 15.2011L21.284 15.207L21.2546 15.2099L21.231 15.2128L21.2193 15.2158H21.2135V15.2511H21.2193L21.2369 15.2481L21.2546 15.2452L21.284 15.2422L21.3222 15.2363L21.3634 15.2334L21.4074 15.2275L21.4545 15.2216L21.5044 15.2158L21.5573 15.2099L21.6073 15.207L21.6572 15.2011L21.7042 15.1981L21.7455 15.1952H21.7866H21.8189V15.1541" fill="white"/>
<path fill-rule="evenodd" clip-rule="evenodd" d="M22.2157 15.1864L22.2334 15.1717H22.2217L22.1951 15.1687L22.1481 15.1658L22.0922 15.1599H22.0276H21.9599L21.8894 15.1541H21.8189V15.1952H21.8894H21.9599L22.0276 15.2011H22.0922H22.1481L22.1951 15.204L22.2217 15.207H22.2334L22.251 15.1923L22.2334 15.207L22.248 15.2099L22.251 15.1923L22.2157 15.1864" fill="white"/>
<path fill-rule="evenodd" clip-rule="evenodd" d="M22.2451 14.9982H22.2423L22.2393 15.0541L22.2304 15.1129L22.2217 15.1658L22.2157 15.1864L22.251 15.1923L22.2569 15.1717L22.2656 15.1188L22.2745 15.0541L22.2833 14.9982H22.2804H22.2451" fill="white"/>
<path fill-rule="evenodd" clip-rule="evenodd" d="M21.8954 14.7073V14.7102L21.9629 14.7132L22.0247 14.7308L22.0835 14.7572L22.1335 14.7925L22.1746 14.8337L22.2099 14.8836L22.2334 14.9366L22.2451 14.9982H22.2804L22.2686 14.9307L22.2451 14.8661L22.204 14.8102L22.157 14.7631L22.1011 14.722L22.0364 14.6955L21.9688 14.6779L21.8954 14.6691V14.672V14.7073" fill="white"/>
<path fill-rule="evenodd" clip-rule="evenodd" d="M20.6344 14.8483L20.6637 14.866L20.6932 14.8513L20.7314 14.8307L20.7813 14.8131L20.8461 14.7955L20.9166 14.7807L20.993 14.766L21.0781 14.7514L21.1634 14.7397L21.2546 14.7279L21.3486 14.719L21.4426 14.7102L21.5397 14.7043H21.6337H21.7248H21.813L21.8954 14.7073V14.672L21.813 14.6691L21.7248 14.6632H21.6337L21.5397 14.6691L21.4426 14.675L21.3486 14.6838L21.2546 14.6926L21.1634 14.7043L21.0724 14.7161L20.9871 14.7308L20.9107 14.7455L20.8402 14.7602L20.7754 14.7778L20.7195 14.7955L20.6755 14.816L20.6402 14.8366L20.6696 14.8542L20.6344 14.8483" fill="white"/>
<path fill-rule="evenodd" clip-rule="evenodd" d="M20.8518 14.1253L20.8402 14.14L20.6344 14.8483L20.6696 14.8542L20.8755 14.1459L20.8637 14.1605L20.8518 14.1253L20.8431 14.1283L20.8402 14.14L20.8518 14.1253" fill="white"/>
<path fill-rule="evenodd" clip-rule="evenodd" d="M22.1598 13.9901L22.06 13.9842L21.96 13.9812H21.8659H21.7749H21.6837L21.5984 13.9871L21.5133 13.9901L21.431 13.996L21.3516 14.0019L21.2722 14.0136L21.1987 14.0253L21.1253 14.04L21.0548 14.0547L20.9841 14.0752L20.9166 14.0989L20.8518 14.1253L20.8637 14.1605L20.9283 14.1342L20.9958 14.1105L21.0605 14.09L21.1312 14.0752L21.2047 14.0606L21.2781 14.0488L21.3516 14.0371L21.431 14.0312L21.5133 14.0253L21.5984 14.0225H21.6837H21.7749H21.8659H21.96L22.06 14.0253H22.1598V13.9901" fill="white"/>
<path fill-rule="evenodd" clip-rule="evenodd" d="M23.1681 14.9865L23.1828 14.866V14.7543L23.1622 14.6514L23.1299 14.5544L23.0829 14.4633L23.024 14.381L22.9535 14.3076L22.8801 14.2428L22.7948 14.187L22.7067 14.1342L22.6125 14.093L22.5213 14.0576L22.4244 14.0312L22.3333 14.0106L22.2423 13.996L22.1598 13.9901V14.0253L22.2423 14.0312L22.3274 14.046L22.4185 14.0665L22.5097 14.093L22.6009 14.1283L22.6889 14.1694L22.7772 14.2164L22.8566 14.2722L22.93 14.337L22.9946 14.4045L23.0534 14.4809L23.0947 14.5662L23.1269 14.6573L23.1474 14.7543V14.866L23.1328 14.9806L23.1681 14.9865" fill="white"/>
<path fill-rule="evenodd" clip-rule="evenodd" d="M22.8594 16.5385L23.1681 14.9865L23.1328 14.9806L22.8242 16.5326L22.8594 16.5385" fill="white"/>
<path fill-rule="evenodd" clip-rule="evenodd" d="M22.1305 15.7683L22.1246 15.7507L22.1129 15.7361L22.0922 15.7272L22.0628 15.7184L22.0306 15.7155L21.9925 15.7125H21.9483L21.9042 15.7155L21.8572 15.7214L21.8101 15.7272L21.7631 15.7331L21.719 15.7389L21.6748 15.7478L21.6367 15.7536L21.5984 15.7624L21.569 15.7683L21.5484 15.7713L21.5249 15.7801L21.4957 15.789L21.4633 15.8007L21.425 15.8183L21.3897 15.8359L21.3486 15.8565L21.3105 15.883L21.2722 15.9095L21.2341 15.9418L21.2017 15.9741L21.1693 16.0123L21.1429 16.0535L21.1223 16.0976L21.1046 16.1446L21.0959 16.1945L21.0929 16.2945L21.1075 16.3739L21.1312 16.4326L21.1664 16.4768L21.2104 16.5062L21.2604 16.5238L21.3105 16.5326L21.3604 16.5355L21.4485 16.5326L21.5309 16.5238L21.6073 16.5091L21.6748 16.4885L21.7396 16.465L21.7954 16.4385L21.8484 16.4091L21.8954 16.3739L21.9364 16.3415L21.9718 16.3033L22.0041 16.268L22.0306 16.2298L22.0511 16.1945L22.0658 16.1593L22.0776 16.124L22.0865 16.0917L22.0981 16.0094L22.1129 15.9242L22.1246 15.8418L22.1305 15.7683" fill="#F9AB1E"/>
<path fill-rule="evenodd" clip-rule="evenodd" d="M28.1855 16.7854L28.1914 16.7178L28.2149 16.6384L28.2561 16.5679L28.3061 16.5062L28.3677 16.4562L28.4382 16.4209L28.5148 16.3974L28.597 16.3886L28.6793 16.3974L28.7557 16.4209L28.8264 16.4562L28.888 16.5062L28.938 16.5679L28.9792 16.6384L29.0027 16.7178L29.0085 16.7854H28.9204L28.9174 16.7325L28.8998 16.6678L28.8704 16.609L28.8321 16.559L28.7851 16.5179L28.7292 16.4885L28.6647 16.4679L28.597 16.462L28.5294 16.4679L28.4648 16.4885L28.4089 16.5179L28.3618 16.559L28.3237 16.609L28.2942 16.6678L28.2767 16.7325L28.2707 16.7854H28.1855" fill="white"/>
<path fill-rule="evenodd" clip-rule="evenodd" d="M28.45 16.7854V16.609H28.6117L28.6469 16.6119L28.6793 16.6178L28.7028 16.6267L28.7233 16.6384L28.7381 16.6561L28.7499 16.6737L28.7557 16.6943L28.7587 16.7148L28.7557 16.7413L28.7499 16.7619L28.7411 16.7795L28.7352 16.7854H28.6117L28.6236 16.7825L28.6441 16.7795L28.6617 16.7737L28.6763 16.7678L28.6882 16.7589L28.6941 16.7501L28.7 16.7354V16.7148L28.697 16.7001L28.6911 16.6884L28.6822 16.6825L28.6734 16.6766L28.6587 16.6737L28.6441 16.6707H28.6293H28.6117H28.5235V16.7854H28.45" fill="white"/>
<path fill-rule="evenodd" clip-rule="evenodd" d="M28.1855 16.7854L28.1825 16.803L28.1914 16.8882L28.2149 16.9676L28.2561 17.0382L28.3061 17.097L28.3677 17.1469L28.4382 17.1852L28.5148 17.2086L28.597 17.2175L28.6793 17.2086L28.7557 17.1852L28.8264 17.1469L28.888 17.097L28.938 17.0382L28.9792 16.9676L29.0027 16.8882L29.0116 16.803L29.0085 16.7854H28.9204L28.9233 16.803L28.9174 16.8735L28.8998 16.9382L28.8704 16.9941L28.8321 17.0439L28.7851 17.0852L28.7292 17.1175L28.6647 17.1381L28.597 17.144L28.5294 17.1381L28.4648 17.1175L28.409 17.0852L28.3618 17.0439L28.3237 16.9941L28.2943 16.9382L28.2767 16.8735L28.2708 16.803V16.7854H28.1855" fill="white"/>
<path fill-rule="evenodd" clip-rule="evenodd" d="M28.45 16.7854V16.9647H28.5235V16.8177H28.597L28.6852 16.9647H28.744L28.6558 16.8177H28.6763L28.697 16.8118L28.7146 16.8059L28.7292 16.7942L28.7352 16.7854H28.6117L28.597 16.7883H28.5235V16.7854H28.45" fill="white"/>
<path d="M28.1825 16.803L28.1914 16.7178L28.2149 16.6384L28.2561 16.5679L28.3061 16.5062L28.3677 16.4562L28.4382 16.4209L28.5148 16.3974L28.597 16.3886L28.6793 16.3974L28.7557 16.4209L28.8264 16.4562L28.888 16.5062L28.938 16.5679L28.9792 16.6384L29.0027 16.7178L29.0116 16.803L29.0027 16.8882L28.9792 16.9676L28.938 17.0382L28.888 17.097L28.8264 17.1469L28.7557 17.1852L28.6793 17.2086L28.597 17.2175L28.5148 17.2086L28.4382 17.1852L28.3677 17.1469L28.3061 17.097L28.2561 17.0382L28.2149 16.9676L28.1914 16.8882L28.1825 16.803Z" stroke="white" stroke-width="0.288" stroke-miterlimit="2.6131"/>
<path d="M28.5235 16.9647H28.45V16.609H28.6117L28.6469 16.6119L28.6793 16.6178L28.7028 16.6267L28.7233 16.6384L28.7381 16.6561L28.7499 16.6737L28.7557 16.6943L28.7587 16.7148L28.7557 16.7413L28.7499 16.7619L28.7411 16.7795L28.7292 16.7942L28.7146 16.8059L28.697 16.8118L28.6763 16.8177H28.6558L28.744 16.9647H28.6852L28.597 16.8177H28.5235V16.9647" stroke="white" stroke-width="0.288" stroke-miterlimit="2.6131"/>
<path d="M28.597 16.7883L28.6236 16.7825L28.6441 16.7795L28.6617 16.7737L28.6763 16.7678L28.6882 16.7589L28.6941 16.7501L28.7 16.7354V16.7148L28.697 16.7001L28.6911 16.6884L28.6822 16.6825L28.6734 16.6766L28.6587 16.6737L28.6441 16.6707H28.6293H28.6117H28.5235V16.7883H28.597" stroke="white" stroke-width="0.288" stroke-miterlimit="2.6131"/>
<path d="M28.597 17.144L28.6647 17.1381L28.7292 17.1175L28.7851 17.0852L28.8321 17.0439L28.8704 16.9941L28.8998 16.9382L28.9174 16.8735L28.9233 16.803L28.9174 16.7325L28.8998 16.6678L28.8704 16.609L28.8321 16.559L28.7851 16.5179L28.7292 16.4885L28.6647 16.4679L28.597 16.462L28.5294 16.4679L28.4648 16.4885L28.409 16.5179L28.3618 16.559L28.3237 16.609L28.2943 16.6678L28.2767 16.7325L28.2708 16.803L28.2767 16.8735L28.2943 16.9382L28.3237 16.9941L28.3618 17.0439L28.409 17.0852L28.4648 17.1175L28.5294 17.1381L28.597 17.144Z" stroke="white" stroke-width="0.288" stroke-miterlimit="2.6131"/>
<path fill-rule="evenodd" clip-rule="evenodd" d="M23.0623 17.188H23.8912L24.188 15.5156L24.1998 15.4509L24.2174 15.3863L24.235 15.3216L24.2587 15.2569L24.2879 15.1923L24.3233 15.1306L24.3614 15.0717L24.4085 15.0159L24.4615 14.9659L24.5201 14.9189L24.5878 14.8748L24.6642 14.8395L24.7494 14.8102L24.8435 14.7866L24.9464 14.769L25.061 14.7631H25.102H25.1257H25.1344L25.2667 14.0077L25.1845 14.0136L25.1052 14.0225L25.0315 14.0371L24.961 14.0576L24.8965 14.0811L24.8347 14.1105L24.7758 14.1429L24.72 14.1782L24.6672 14.2193L24.6171 14.2606L24.5701 14.3076L24.5231 14.3546L24.479 14.4045L24.435 14.4603L24.391 14.5132L24.3497 14.5721L24.438 14.04H23.6118L23.0623 17.188" fill="white"/>
<path d="M23.0623 17.188H23.8912L24.188 15.5156L24.1998 15.4509L24.2174 15.3863L24.235 15.3216L24.2587 15.2569L24.2879 15.1923L24.3233 15.1306L24.3614 15.0717L24.4085 15.0159L24.4615 14.9659L24.5201 14.9189L24.5878 14.8748L24.6642 14.8395L24.7494 14.8102L24.8435 14.7866L24.9464 14.769L25.061 14.7631H25.102H25.1257H25.1344L25.2667 14.0077L25.1845 14.0136L25.1052 14.0225L25.0315 14.0371L24.961 14.0576L24.8965 14.0811L24.8347 14.1105L24.7758 14.1429L24.72 14.1782L24.6672 14.2193L24.6171 14.2606L24.5701 14.3076L24.5231 14.3546L24.479 14.4045L24.435 14.4603L24.391 14.5132L24.3497 14.5721L24.438 14.04H23.6118L23.0623 17.188" stroke="white" stroke-width="0.288" stroke-miterlimit="2.6131"/>
<path fill-rule="evenodd" clip-rule="evenodd" d="M15.2789 17.188H16.1226L16.4046 15.5156L16.4164 15.4509L16.4311 15.3892L16.4458 15.3275L16.4664 15.2687L16.4899 15.2099L16.5193 15.1541L16.5546 15.1011L16.5957 15.0511L16.6427 15.0071L16.6956 14.963L16.7604 14.9277L16.8309 14.8954L16.9132 14.8689L17.0043 14.8454L17.1042 14.8307L17.2189 14.8219H17.2276L17.2394 14.8249L17.2542 14.8278H17.2688L17.2835 14.8307L17.2953 14.8337L17.304 14.8366H17.3071L17.3099 14.8249L17.3188 14.7896L17.3306 14.7367L17.3452 14.672L17.3658 14.5956L17.3863 14.5132L17.4129 14.431L17.4393 14.3487L17.4628 14.2928L17.4922 14.2369L17.5216 14.181L17.551 14.1311L17.5775 14.087L17.598 14.0519L17.6128 14.0312L17.6185 14.0225H17.6157L17.6039 14.0195L17.5891 14.0165L17.5686 14.0136H17.548L17.5245 14.0106L17.504 14.0077H17.4834L17.3922 14.0136L17.3099 14.0225L17.2335 14.0371L17.163 14.0547L17.0955 14.0783L17.0337 14.1076L16.9778 14.137L16.9249 14.1723L16.8749 14.2106L16.8279 14.2547L16.7839 14.2987L16.7397 14.3487L16.6956 14.3986L16.6545 14.4545L16.6103 14.5132L16.5663 14.5721L16.6721 14.04H15.8286L15.2789 17.188Z" fill="white"/>
<path d="M15.2789 17.188H16.1226L16.4046 15.5156L16.4164 15.4509L16.4311 15.3892L16.4458 15.3275L16.4664 15.2687L16.4899 15.2099L16.5193 15.1541L16.5546 15.1011L16.5957 15.0511L16.6427 15.0071L16.6956 14.963L16.7604 14.9277L16.8309 14.8954L16.9132 14.8689L17.0043 14.8454L17.1042 14.8307L17.2189 14.8219H17.2276L17.2394 14.8249L17.2542 14.8278H17.2688L17.2835 14.8307L17.2953 14.8337L17.304 14.8366H17.3071L17.3099 14.8249L17.3188 14.7896L17.3306 14.7367L17.3452 14.672L17.3658 14.5956L17.3863 14.5132L17.4129 14.431L17.4393 14.3487L17.4628 14.2928L17.4922 14.2369L17.5216 14.181L17.551 14.1311L17.5775 14.087L17.598 14.0519L17.6128 14.0312L17.6185 14.0225H17.6157L17.6039 14.0195L17.5891 14.0165L17.5686 14.0136H17.548L17.5245 14.0106L17.504 14.0077H17.4834L17.3922 14.0136L17.3099 14.0225L17.2335 14.0371L17.163 14.0547L17.0955 14.0783L17.0337 14.1076L16.9778 14.137L16.9249 14.1723L16.8749 14.2106L16.8279 14.2547L16.7839 14.2987L16.7397 14.3487L16.6956 14.3986L16.6545 14.4545L16.6103 14.5132L16.5663 14.5721L16.6721 14.04H15.8286L15.2789 17.188Z" stroke="white" stroke-width="0.288" stroke-miterlimit="2.6131"/>
<path fill-rule="evenodd" clip-rule="evenodd" d="M28.1914 20.2802V20.2685L28.2149 20.1921L28.2561 20.1245L28.3061 20.0657L28.3677 20.0186L28.4382 19.9833L28.5148 19.9628L28.597 19.954L28.6793 19.9628L28.7557 19.9833L28.8264 20.0186L28.888 20.0657L28.9379 20.1245L28.9792 20.1921L29.0027 20.2685V20.2802H28.9174L28.8998 20.2185L28.8704 20.1626L28.8321 20.1127L28.7851 20.0716L28.7292 20.0392L28.6647 20.0186L28.597 20.0128L28.5294 20.0186L28.4648 20.0392L28.409 20.0716L28.3618 20.1127L28.3237 20.1626L28.2942 20.2185L28.2767 20.2802H28.1914Z" fill="#F9AB1E"/>
<path fill-rule="evenodd" clip-rule="evenodd" d="M28.45 20.2802V20.1773H28.6469L28.6793 20.1832L28.7028 20.1891L28.7233 20.2009L28.7381 20.2156L28.7499 20.2332L28.7557 20.2538L28.7587 20.2802H28.7V20.2656L28.697 20.2508L28.6911 20.239L28.6822 20.2332L28.6734 20.2273L28.6587 20.2244L28.6441 20.2215H28.6293H28.6117H28.5235V20.2802H28.45" fill="#F9AB1E"/>
<path fill-rule="evenodd" clip-rule="evenodd" d="M28.1825 20.3449L28.1914 20.2802H28.2767V20.2832L28.2708 20.3449H28.1825" fill="#F9AB1E"/>
<path fill-rule="evenodd" clip-rule="evenodd" d="M28.45 20.3449V20.2802H28.5235V20.3391H28.597L28.6236 20.3331L28.6441 20.3303L28.6617 20.3244L28.6763 20.3185L28.6882 20.3096L28.6941 20.3008L28.7 20.2861V20.2802H28.7587L28.7557 20.3008L28.7499 20.3185L28.7411 20.3331L28.7292 20.3449H28.45" fill="#F9AB1E"/>
<path fill-rule="evenodd" clip-rule="evenodd" d="M28.9233 20.3449L28.9174 20.2832V20.2802H29.0027L29.0116 20.3449H28.9233" fill="#F9AB1E"/>
<path fill-rule="evenodd" clip-rule="evenodd" d="M28.1825 20.3449V20.3537L28.1914 20.439L28.2149 20.5183L28.2561 20.5889L28.3061 20.6506L28.3677 20.7006L28.4382 20.7358L28.5148 20.7593L28.597 20.7682L28.6793 20.7593L28.7557 20.7358L28.8264 20.7006L28.888 20.6506L28.938 20.5889L28.9792 20.5183L29.0027 20.439L29.0116 20.3537V20.3449H28.9233V20.3537L28.9174 20.4243L28.8998 20.4889L28.8704 20.5448L28.8321 20.5948L28.7851 20.6359L28.7292 20.6683L28.6647 20.6888L28.597 20.6947L28.5294 20.6888L28.4648 20.6683L28.409 20.6359L28.3618 20.5948L28.3237 20.5448L28.2943 20.4889L28.2767 20.4243L28.2708 20.3537V20.3449H28.1825" fill="#F9AB1E"/>
<path fill-rule="evenodd" clip-rule="evenodd" d="M28.45 20.3449V20.5154H28.5235V20.3684H28.597L28.6852 20.5154H28.744L28.6558 20.3684H28.6763L28.697 20.3625L28.7146 20.3566L28.7292 20.3449H28.45" fill="#F9AB1E"/>
</svg>
