<svg width="30" height="15" viewBox="0 0 30 15" fill="none" xmlns="http://www.w3.org/2000/svg">
<path d="M8.23562 0H5.12637C3.75257 0.0746131 2.62958 0.710211 2.30533 2.02091C2.13626 2.70447 2.04321 3.4552 1.911 4.16379C1.23888 7.76679 0.642909 11.469 0 15H24.2063C26.0776 15 27.3625 14.5458 27.7098 12.8397C27.8711 12.0472 28.0256 11.1495 28.18 10.2787C28.7816 6.88375 29.3838 3.48896 30 0H8.23562Z" fill="#B82126"/>
<path d="M20.7246 8.96182C20.3889 9.33933 19.4465 9.44656 19.5429 8.54418C19.623 7.79471 20.3334 7.63546 21.1033 7.7437C21.0461 8.15364 20.9804 8.67419 20.7246 8.96182ZM19.6641 6.03834C19.6321 6.2451 19.5828 6.4322 19.5429 6.62997C19.9274 6.51929 21.1244 6.17983 21.2397 6.76916C21.278 6.96497 21.2119 7.17302 21.1639 7.32606C20.0815 7.20829 19.1992 7.41484 18.9672 8.30053C18.8118 8.89378 18.9847 9.47758 19.3157 9.64055C19.9533 9.95427 20.7288 9.59487 20.9973 9.10108C20.9694 9.27203 20.943 9.44467 20.9518 9.65792H21.5124C21.5183 9.04129 21.5964 8.54216 21.679 7.98728C21.7494 7.51478 21.8818 7.047 21.8608 6.62997C21.8127 5.67489 20.4352 6.01273 19.6641 6.03834ZM25.2846 9.25764C24.8461 9.26845 24.628 8.95669 24.618 8.43979C24.6005 7.53451 24.9462 6.52875 25.6482 6.43855C25.975 6.39659 26.2116 6.48389 26.4511 6.57781C26.2313 7.59464 26.3106 9.23237 25.2846 9.25764ZM26.7389 4.47217C26.6831 5.03447 26.6085 5.57522 26.5118 6.0905C24.9138 5.50955 23.9338 6.85997 23.9514 8.52675C23.9549 8.84912 24.0032 9.16879 24.1787 9.39683C24.4812 9.78981 25.3473 9.8838 25.7845 9.55352C25.8692 9.4896 25.9557 9.37325 26.0118 9.2925C26.0539 9.23169 26.1209 9.07264 26.1329 9.11838C26.11 9.29507 26.0756 9.45866 26.0724 9.65792H26.6632C26.7771 7.78167 27.1292 6.17908 27.3904 4.47217H26.7389ZM10.0593 8.97926C9.71077 9.40325 8.85394 9.39676 8.78677 8.68338C8.75747 8.37297 8.85818 8.04749 8.90794 7.72633C8.9583 7.40126 8.99453 7.08937 9.04424 6.80396C9.38753 6.32246 10.3963 6.26436 10.4987 7.06504C10.5875 7.76019 10.3479 8.6281 10.0593 8.97926ZM10.5744 6.03834C10.0231 5.80043 9.35106 6.08442 9.05977 6.35456C9.06077 6.36645 9.05283 6.36807 9.04424 6.36895C9.04924 6.36415 9.05459 6.35936 9.05977 6.35456C9.05971 6.35355 9.05965 6.35267 9.05942 6.35159C9.06436 6.23537 9.09994 6.15449 9.10489 6.03834H8.54436C8.31077 7.82343 8.03377 9.55859 7.74141 11.2762H8.39283C8.48712 10.6073 8.54941 9.90157 8.68071 9.27507C8.82947 9.934 9.80089 9.80805 10.2108 9.55352C11.0566 9.02818 11.7089 6.52787 10.5744 6.03834ZM13.6649 7.29126H12.1348C12.1832 6.8872 12.4997 6.44307 12.9983 6.42118C13.4676 6.40057 13.8036 6.61909 13.6649 7.29126ZM13.0438 5.96874C12.5731 6.01037 12.1752 6.16598 11.8924 6.50814C11.5456 6.92788 11.2647 7.8558 11.347 8.70081C11.4644 9.90636 12.7712 9.86312 13.8164 9.57089C13.8342 9.35933 13.8788 9.17845 13.9073 8.97926C13.4767 9.16433 12.7291 9.42264 12.2863 9.10108C11.9519 8.85824 11.95 8.2433 12.0591 7.7089C12.7615 7.68323 13.4916 7.68816 14.1951 7.7089C14.2398 7.33011 14.3675 6.91713 14.2557 6.54301C14.1083 6.04908 13.5807 5.92124 13.0438 5.96874ZM7.31724 6.03834C7.29959 6.04124 7.30077 6.06584 7.30206 6.0905C7.15853 7.32356 6.9643 8.49844 6.75671 9.65792H7.40812C7.56465 8.41655 7.74394 7.2014 7.96865 6.03834H7.31724ZM24.3151 6.0557C23.7393 5.72509 23.26 6.2799 23.0728 6.61254C23.1261 6.44186 23.1292 6.21334 23.1788 6.03834H22.6031C22.4479 7.28119 22.2608 8.48736 22.0426 9.65792H22.7092C22.7134 9.17818 22.7954 8.82331 22.8606 8.35276C23 7.34822 23.2045 6.24652 24.2242 6.57781C24.258 6.40787 24.2721 6.21517 24.3151 6.0557ZM16.9978 8.8052C16.9378 8.62702 16.9222 8.33276 16.9372 8.10911C16.9709 7.60627 17.1304 6.99409 17.3765 6.717C17.7162 6.33449 18.3869 6.3978 18.9218 6.61254C18.9384 6.40544 18.9746 6.22077 18.9975 6.02097C18.1202 5.85638 17.2877 5.95874 16.8463 6.49078C16.4142 7.0116 16.1309 8.20864 16.3312 8.96182C16.5656 9.84319 17.6164 9.89109 18.4674 9.55352C18.5049 9.37636 18.5249 9.17886 18.5582 8.99662C18.0933 9.27413 17.2044 9.41832 16.9978 8.8052ZM16.6342 6.03834C16.0566 5.77036 15.6025 6.22321 15.392 6.6474C15.4397 6.45868 15.4594 6.23767 15.498 6.03834H14.9223C14.7816 7.29207 14.5741 8.46912 14.3769 9.65792H15.0284C15.1197 8.95223 15.1591 8.00107 15.3617 7.32606C15.5235 6.78666 15.9472 6.32713 16.5585 6.57781C16.5671 6.37882 16.6167 6.22692 16.6342 6.03834ZM6.13559 4.57656C6.04253 5.27015 5.93771 5.95023 5.83259 6.62997C5.15771 6.63814 4.46865 6.66828 3.81771 6.61254C3.94065 5.94759 4.02883 5.24258 4.15094 4.57656H3.42383C3.16347 6.273 2.92671 7.99641 2.63606 9.65792H3.37836C3.49483 8.80554 3.60371 7.94451 3.75706 7.13464C4.39 7.11673 5.14859 7.08551 5.75683 7.15207C5.63142 7.99411 5.47989 8.80608 5.36294 9.65792H6.1053C6.34377 7.93647 6.59512 6.22976 6.89306 4.57656H6.13559ZM7.98383 5.34225C8.11371 5.23954 8.28094 4.77143 8.08989 4.57656C8.02936 4.51487 7.92806 4.49697 7.78689 4.5244C7.65589 4.5498 7.58053 4.60089 7.52936 4.68095C7.447 4.80974 7.37159 5.19799 7.499 5.34225C7.62312 5.48272 7.90118 5.40759 7.98383 5.34225Z" fill="white"/>
</svg>
