<svg width="30" height="10" viewBox="0 0 30 10" fill="none" xmlns="http://www.w3.org/2000/svg">
<path d="M13.0052 9.83376H10.5573L12.0872 0.172936H14.5353L13.0052 9.83376Z" fill="#1C63B7"/>
<path d="M8.4978 0.171196L6.16396 6.81582L5.88788 5.38494L5.88818 5.38543L5.06429 1.04133C5.06429 1.04133 4.96486 0.171196 3.90301 0.171196H0.0451965L0 0.334618C0 0.334618 1.18014 0.586781 2.56048 1.43924L4.68732 9.83202H7.23779L11.1326 0.171196H8.4978Z" fill="#1C63B7"/>
<path d="M25.0586 6.41629L26.3451 2.8009L27.0687 6.41629H25.0586ZM27.7523 9.83376H30L28.0402 0.172936H26.0722C25.1632 0.172936 24.9421 0.892857 24.9421 0.892857L21.2914 9.83376H23.8428L24.3534 8.39883H27.4653L27.7523 9.83376" fill="#1C63B7"/>
<path d="M21.4828 2.49614L21.8321 0.421244C21.8321 0.421244 20.754 -3.56486e-07 19.6304 -3.56486e-07C18.4156 -3.56486e-07 15.5308 0.545904 15.5308 3.19821C15.5308 5.69425 18.9166 5.72533 18.9166 7.03579C18.9166 8.34634 15.8799 8.11214 14.8777 7.28542L14.5134 9.4541C14.5134 9.4541 15.6064 10 17.2768 10C18.9471 10 21.4676 9.111 21.4676 6.69259C21.4676 4.18091 18.0513 3.94692 18.0513 2.85501C18.0513 1.76278 20.4352 1.903 21.4828 2.49614" fill="#1C63B7"/>
<path d="M5.88818 5.38717L5.06428 1.04307C5.06428 1.04307 4.96486 0.172929 3.90301 0.172929H0.0451965L0 0.33635C0 0.33635 1.85439 0.731339 3.63342 2.21067C5.33348 3.62459 5.88818 5.38717 5.88818 5.38717" fill="#F89C22"/>
</svg>
