<svg width="142" height="24" viewBox="0 0 142 24" fill="none" xmlns="http://www.w3.org/2000/svg">
<path d="M99.0857 4.96C98.5737 5.488 97.9657 6.176 97.2617 7.024C96.5577 7.856 95.8297 8.768 95.0777 9.76C94.3257 10.752 93.5817 11.776 92.8457 12.832C92.1097 13.888 91.4537 14.896 90.8777 15.856H99.3497V19H86.2697V16.768C86.7177 15.952 87.2617 15.048 87.9017 14.056C88.5577 13.048 89.2377 12.04 89.9417 11.032C90.6457 10.008 91.3577 9.024 92.0777 8.08C92.8137 7.12 93.4937 6.264 94.1177 5.512H86.6537V2.368H99.0857V4.96ZM113.332 12.664C113.332 13.656 113.188 14.568 112.9 15.4C112.612 16.216 112.196 16.92 111.652 17.512C111.108 18.088 110.452 18.536 109.684 18.856C108.932 19.176 108.084 19.336 107.14 19.336C106.212 19.336 105.364 19.176 104.596 18.856C103.844 18.536 103.196 18.088 102.652 17.512C102.108 16.92 101.684 16.216 101.38 15.4C101.076 14.568 100.924 13.656 100.924 12.664C100.924 11.672 101.076 10.768 101.38 9.952C101.7 9.136 102.132 8.44 102.676 7.864C103.236 7.288 103.892 6.84 104.644 6.52C105.412 6.2 106.244 6.04 107.14 6.04C108.052 6.04 108.884 6.2 109.636 6.52C110.404 6.84 111.06 7.288 111.604 7.864C112.148 8.44 112.572 9.136 112.876 9.952C113.18 10.768 113.332 11.672 113.332 12.664ZM109.684 12.664C109.684 11.56 109.46 10.696 109.012 10.072C108.58 9.432 107.956 9.112 107.14 9.112C106.324 9.112 105.692 9.432 105.244 10.072C104.796 10.696 104.572 11.56 104.572 12.664C104.572 13.768 104.796 14.648 105.244 15.304C105.692 15.944 106.324 16.264 107.14 16.264C107.956 16.264 108.58 15.944 109.012 15.304C109.46 14.648 109.684 13.768 109.684 12.664ZM116.102 6.808C116.71 6.632 117.494 6.472 118.454 6.328C119.414 6.168 120.422 6.088 121.478 6.088C122.55 6.088 123.438 6.232 124.142 6.52C124.862 6.792 125.43 7.184 125.846 7.696C126.262 8.208 126.558 8.816 126.734 9.52C126.91 10.224 126.998 11.008 126.998 11.872V19H123.422V12.304C123.422 11.152 123.27 10.336 122.966 9.856C122.662 9.376 122.094 9.136 121.262 9.136C121.006 9.136 120.734 9.152 120.446 9.184C120.158 9.2 119.902 9.224 119.678 9.256V19H116.102V6.808ZM129.635 12.784C129.635 11.664 129.803 10.688 130.139 9.856C130.491 9.008 130.947 8.304 131.507 7.744C132.067 7.184 132.707 6.76 133.427 6.472C134.163 6.184 134.915 6.04 135.683 6.04C137.475 6.04 138.891 6.592 139.931 7.696C140.971 8.784 141.491 10.392 141.491 12.52C141.491 12.728 141.483 12.96 141.467 13.216C141.451 13.456 141.435 13.672 141.419 13.864H133.307C133.387 14.6 133.731 15.184 134.339 15.616C134.947 16.048 135.763 16.264 136.787 16.264C137.443 16.264 138.083 16.208 138.707 16.096C139.347 15.968 139.867 15.816 140.267 15.64L140.747 18.544C140.555 18.64 140.299 18.736 139.979 18.832C139.659 18.928 139.299 19.008 138.899 19.072C138.515 19.152 138.099 19.216 137.651 19.264C137.203 19.312 136.755 19.336 136.307 19.336C135.171 19.336 134.179 19.168 133.331 18.832C132.499 18.496 131.803 18.04 131.243 17.464C130.699 16.872 130.291 16.176 130.019 15.376C129.763 14.576 129.635 13.712 129.635 12.784ZM138.035 11.416C138.019 11.112 137.963 10.816 137.867 10.528C137.787 10.24 137.651 9.984 137.459 9.76C137.283 9.536 137.051 9.352 136.763 9.208C136.491 9.064 136.147 8.992 135.731 8.992C135.331 8.992 134.987 9.064 134.699 9.208C134.411 9.336 134.171 9.512 133.979 9.736C133.787 9.96 133.635 10.224 133.523 10.528C133.427 10.816 133.355 11.112 133.307 11.416H138.035Z" fill="#DDDDDD"/>
<path d="M9.46559 5.248C7.72159 5.248 6.45759 5.736 5.67359 6.712C4.90559 7.672 4.52159 8.992 4.52159 10.672C4.52159 11.488 4.61759 12.232 4.80959 12.904C5.00159 13.56 5.28959 14.128 5.67359 14.608C6.05759 15.088 6.53759 15.464 7.11359 15.736C7.68959 15.992 8.36159 16.12 9.12959 16.12C9.54559 16.12 9.89759 16.112 10.1856 16.096C10.4896 16.08 10.7536 16.048 10.9776 16V10.216H14.7216V18.448C14.2736 18.624 13.5536 18.808 12.5616 19C11.5696 19.208 10.3456 19.312 8.88959 19.312C7.64159 19.312 6.50559 19.12 5.48159 18.736C4.47359 18.352 3.60959 17.792 2.88959 17.056C2.16959 16.32 1.60959 15.416 1.20959 14.344C0.825594 13.272 0.633594 12.048 0.633594 10.672C0.633594 9.28 0.849594 8.048 1.28159 6.976C1.71359 5.904 2.30559 5 3.05759 4.264C3.80959 3.512 4.68959 2.944 5.69759 2.56C6.72159 2.176 7.80959 1.984 8.96159 1.984C9.74559 1.984 10.4496 2.04 11.0736 2.152C11.7136 2.248 12.2576 2.368 12.7056 2.512C13.1696 2.64 13.5456 2.776 13.8336 2.92C14.1376 3.064 14.3536 3.176 14.4816 3.256L13.4016 6.256C12.8896 5.984 12.2976 5.752 11.6256 5.56C10.9696 5.352 10.2496 5.248 9.46559 5.248ZM22.7892 16.504C23.1412 16.504 23.4772 16.496 23.7972 16.48C24.1172 16.464 24.3732 16.44 24.5652 16.408V13.696C24.4212 13.664 24.2052 13.632 23.9172 13.6C23.6292 13.568 23.3652 13.552 23.1252 13.552C22.7892 13.552 22.4692 13.576 22.1652 13.624C21.8772 13.656 21.6212 13.728 21.3972 13.84C21.1732 13.952 20.9972 14.104 20.8692 14.296C20.7412 14.488 20.6772 14.728 20.6772 15.016C20.6772 15.576 20.8612 15.968 21.2292 16.192C21.6132 16.4 22.1332 16.504 22.7892 16.504ZM22.5012 6.04C23.5572 6.04 24.4372 6.16 25.1412 6.4C25.8452 6.64 26.4052 6.984 26.8212 7.432C27.2532 7.88 27.5572 8.424 27.7332 9.064C27.9092 9.704 27.9972 10.416 27.9972 11.2V18.64C27.4852 18.752 26.7732 18.88 25.8612 19.024C24.9492 19.184 23.8452 19.264 22.5492 19.264C21.7332 19.264 20.9892 19.192 20.3172 19.048C19.6612 18.904 19.0932 18.672 18.6132 18.352C18.1332 18.016 17.7652 17.584 17.5092 17.056C17.2532 16.528 17.1252 15.88 17.1252 15.112C17.1252 14.376 17.2692 13.752 17.5572 13.24C17.8612 12.728 18.2612 12.32 18.7572 12.016C19.2532 11.712 19.8212 11.496 20.4612 11.368C21.1012 11.224 21.7652 11.152 22.4532 11.152C22.9172 11.152 23.3252 11.176 23.6772 11.224C24.0452 11.256 24.3412 11.304 24.5652 11.368V11.032C24.5652 10.424 24.3812 9.936 24.0132 9.568C23.6452 9.2 23.0052 9.016 22.0932 9.016C21.4852 9.016 20.8852 9.064 20.2932 9.16C19.7012 9.24 19.1892 9.36 18.7572 9.52L18.3012 6.64C18.5092 6.576 18.7652 6.512 19.0692 6.448C19.3892 6.368 19.7332 6.304 20.1012 6.256C20.4692 6.192 20.8532 6.144 21.2532 6.112C21.6692 6.064 22.0852 6.04 22.5012 6.04ZM38.1668 12.304C38.1668 11.152 38.0148 10.336 37.7108 9.856C37.4228 9.376 36.9188 9.136 36.1988 9.136C35.9748 9.136 35.7428 9.152 35.5028 9.184C35.2628 9.2 35.0308 9.224 34.8068 9.256V19H31.2308V6.808C31.5348 6.728 31.8868 6.648 32.2868 6.568C32.7028 6.472 33.1348 6.392 33.5828 6.328C34.0468 6.248 34.5188 6.192 34.9988 6.16C35.4788 6.112 35.9508 6.088 36.4148 6.088C37.3268 6.088 38.0628 6.208 38.6228 6.448C39.1988 6.672 39.6708 6.944 40.0388 7.264C40.5508 6.896 41.1348 6.608 41.7908 6.4C42.4628 6.192 43.0788 6.088 43.6388 6.088C44.6468 6.088 45.4708 6.232 46.1108 6.52C46.7668 6.792 47.2868 7.184 47.6708 7.696C48.0548 8.208 48.3188 8.816 48.4628 9.52C48.6068 10.224 48.6788 11.008 48.6788 11.872V19H45.1028V12.304C45.1028 11.152 44.9508 10.336 44.6468 9.856C44.3588 9.376 43.8548 9.136 43.1348 9.136C42.9428 9.136 42.6708 9.184 42.3188 9.28C41.9828 9.376 41.7028 9.496 41.4788 9.64C41.5908 10.008 41.6628 10.4 41.6948 10.816C41.7268 11.216 41.7428 11.648 41.7428 12.112V19H38.1668V12.304ZM55.5021 19H51.9261V6.376H55.5021V19ZM55.8381 2.728C55.8381 3.384 55.6221 3.904 55.1901 4.288C54.7741 4.656 54.2781 4.84 53.7021 4.84C53.1261 4.84 52.6221 4.656 52.1901 4.288C51.7741 3.904 51.5661 3.384 51.5661 2.728C51.5661 2.072 51.7741 1.56 52.1901 1.192C52.6221 0.807999 53.1261 0.615999 53.7021 0.615999C54.2781 0.615999 54.7741 0.807999 55.1901 1.192C55.6221 1.56 55.8381 2.072 55.8381 2.728ZM58.8636 6.808C59.4716 6.632 60.2556 6.472 61.2156 6.328C62.1756 6.168 63.1836 6.088 64.2396 6.088C65.3116 6.088 66.1996 6.232 66.9036 6.52C67.6236 6.792 68.1916 7.184 68.6076 7.696C69.0236 8.208 69.3196 8.816 69.4956 9.52C69.6716 10.224 69.7596 11.008 69.7596 11.872V19H66.1836V12.304C66.1836 11.152 66.0316 10.336 65.7276 9.856C65.4236 9.376 64.8556 9.136 64.0236 9.136C63.7676 9.136 63.4956 9.152 63.2076 9.184C62.9196 9.2 62.6636 9.224 62.4396 9.256V19H58.8636V6.808ZM76.0444 12.28C76.0444 14.28 76.8524 15.28 78.4684 15.28C78.8364 15.28 79.1804 15.232 79.5004 15.136C79.8204 15.04 80.0924 14.928 80.3164 14.8V9.088C80.1404 9.056 79.9324 9.032 79.6924 9.016C79.4524 8.984 79.1724 8.968 78.8524 8.968C77.9084 8.968 77.2044 9.28 76.7404 9.904C76.2764 10.528 76.0444 11.32 76.0444 12.28ZM83.8924 17.416C83.8924 19.48 83.3644 21.008 82.3084 22C81.2684 23.008 79.6524 23.512 77.4604 23.512C76.6924 23.512 75.9244 23.44 75.1564 23.296C74.3884 23.168 73.6764 22.992 73.0204 22.768L73.6444 19.768C74.2044 19.992 74.7884 20.168 75.3964 20.296C76.0204 20.424 76.7244 20.488 77.5084 20.488C78.5324 20.488 79.2524 20.264 79.6684 19.816C80.1004 19.368 80.3164 18.792 80.3164 18.088V17.632C79.9324 17.808 79.5324 17.944 79.1164 18.04C78.7164 18.12 78.2764 18.16 77.7964 18.16C76.0524 18.16 74.7164 17.648 73.7884 16.624C72.8604 15.584 72.3964 14.136 72.3964 12.28C72.3964 11.352 72.5404 10.512 72.8284 9.76C73.1164 8.992 73.5324 8.336 74.0764 7.792C74.6364 7.248 75.3164 6.832 76.1164 6.544C76.9164 6.24 77.8204 6.088 78.8284 6.088C79.2604 6.088 79.7004 6.112 80.1484 6.16C80.6124 6.192 81.0684 6.24 81.5164 6.304C81.9644 6.368 82.3884 6.448 82.7884 6.544C83.2044 6.624 83.5724 6.712 83.8924 6.808V17.416Z" fill="#EB8342"/>
</svg>
